<?xml version="1.0" encoding="UTF-8" standalone="no" ?>
<!DOCTYPE svg PUBLIC "-//W3C//DTD SVG 1.1//EN" "http://www.w3.org/Graphics/SVG/1.1/DTD/svg11.dtd">
<svg xmlns="http://www.w3.org/2000/svg" xmlns:xlink="http://www.w3.org/1999/xlink" version="1.1" width="1080" height="1080" viewBox="0 0 1080 1080" xml:space="preserve">
<desc>Created with Fabric.js 5.2.4</desc>
<defs>
</defs>
<g transform="matrix(1 0 0 1 540 540)" id="589b8853-22bb-47e0-88cf-bcf1bd9da7d9"  >
<rect style="stroke: none; stroke-width: 1; stroke-dasharray: none; stroke-linecap: butt; stroke-dashoffset: 0; stroke-linejoin: miter; stroke-miterlimit: 4; fill: rgb(255,255,255); fill-rule: nonzero; opacity: 1; visibility: hidden;" vector-effect="non-scaling-stroke"  x="-540" y="-540" rx="0" ry="0" width="1080" height="1080" />
</g>
<g transform="matrix(1 0 0 1 540 540)" id="423322c3-4421-4ea3-88ba-be43cabccbfa"  >
</g>
<g transform="matrix(14.49 0 0 14.49 540.5 574.91)" id="d7948a71-1ab0-4f57-9038-58e842190611"  >
<path style="stroke: rgb(0,0,0); stroke-width: 1; stroke-dasharray: none; stroke-linecap: butt; stroke-dashoffset: 0; stroke-linejoin: miter; stroke-miterlimit: 4; fill: rgb(255,255,255); fill-rule: nonzero; opacity: 1;" vector-effect="non-scaling-stroke"  transform=" translate(-50, -50)" d="M 81.866 18.883 C 78.577 15.594 74.54 13.998999999999999 69.80799999999999 14.049 C 62.38099999999999 14.149 56.001999999999995 18.183999999999997 50.773999999999994 26.208 L 50.773999999999994 26.157999999999998 L 49.47599999999999 28.549 C 49.47599999999999 28.549 48.92999999999999 27.502 48.129999999999995 26.058 L 48.129999999999995 26.257 C 46.187 22.271 43.69799999999999 19.330000000000002 40.706999999999994 17.337000000000003 C 37.71699999999999 15.394000000000004 34.37899999999999 14.446000000000003 30.791999999999994 14.446000000000003 C 26.056999999999995 14.496000000000004 21.919999999999995 16.041000000000004 18.383999999999993 18.981 C 14.843999999999994 21.972 13.151999999999994 25.808 13.151999999999994 30.441000000000003 C 13.199999999999994 32.036 13.700999999999993 34.378 14.645999999999994 37.418000000000006 C 16.440999999999995 41.952000000000005 21.076999999999995 47.83200000000001 28.697999999999993 55.10600000000001 C 36.27199999999999 62.38100000000001 41.556 67.81200000000001 44.49499999999999 71.4 C 47.48499999999999 74.938 49.42899999999999 79.822 50.32499999999999 85.95100000000001 C 51.07399999999999 80.569 53.86099999999999 75.138 58.79599999999999 69.756 C 63.72999999999999 64.324 69.359 58.346000000000004 75.73899999999999 51.769000000000005 C 82.06599999999999 45.19200000000001 85.60199999999999 40.159000000000006 86.303 36.62100000000001 C 86.7 35.37600000000001 86.849 33.732000000000006 86.849 31.640000000000008 C 86.8 26.457 85.104 22.172 81.866 18.883 z" stroke-linecap="round" />
</g>
<g transform="matrix(4.86 0 0 4.86 540 496.93)" id="76ae2f98-827a-4ff3-bdc9-2aa3b6aec25d"  >
<path style="stroke: rgb(0,0,0); stroke-width: 0; stroke-dasharray: none; stroke-linecap: butt; stroke-dashoffset: 0; stroke-linejoin: miter; stroke-miterlimit: 4; fill: rgb(255,0,0); fill-rule: nonzero; opacity: 1;" vector-effect="non-scaling-stroke"  transform=" translate(-50, -50)" d="M 40.747 13.955 L 59.254000000000005 13.955 C 60.353 13.955 61.242000000000004 14.845 61.242000000000004 15.941 L 61.242000000000004 38.787 L 84.08600000000001 38.787 C 85.18400000000001 38.787 86.07000000000001 39.675 86.07000000000001 40.772999999999996 L 86.07000000000001 59.226 C 86.07000000000001 60.324999999999996 85.183 61.211999999999996 84.08600000000001 61.211999999999996 L 61.242 61.211999999999996 L 61.242 84.05799999999999 C 61.242 85.157 60.352 86.044 59.254 86.044 L 40.747 86.044 C 39.652 86.044 38.762 85.15599999999999 38.762 84.05799999999999 L 38.762 61.213 L 15.915 61.213 C 14.819999999999999 61.213 13.93 60.325 13.93 59.227000000000004 L 13.93 40.773 C 13.93 39.67400000000001 14.82 38.787000000000006 15.915 38.787000000000006 L 38.762 38.787000000000006 L 38.762 15.941 C 38.762 14.845 39.651 13.955 40.747 13.955 z" stroke-linecap="round" />
</g>
</svg>